<svg xmlns="http://www.w3.org/2000/svg" width="17.712" height="12.391" viewBox="0 0 17.712 12.391">
  <g id="Grupo_2814" data-name="Grupo 2814" transform="translate(-989.208 -28.505)">
    <path id="path16" d="M565.92-258.5a.824.824,0,0,1-.824.824H549.032a.824.824,0,0,1-.824-.824v-10.743a.825.825,0,0,1,.824-.824H565.1a.824.824,0,0,1,.824.824V-258.5" transform="translate(441 298.573)" fill="#30af54"/>
    <path id="path18" d="M570.788-244.847l-7.283-4.537,7.283-4.538,7.286,4.536-7.287,4.538" transform="translate(427.274 284.085)" fill="#f4d009"/>
    <path id="path20" d="M610.942-236.3a3.036,3.036,0,0,1-3.035,3.04,3.038,3.038,0,0,1-3.037-3.041,3.047,3.047,0,0,1,3.039-3.038,3.041,3.041,0,0,1,3.034,3.04" transform="translate(390.158 271)" fill="#285aa4"/>
    <path id="path22" d="M607.46-221.054a7.5,7.5,0,0,0-1.72-.038,2.878,2.878,0,0,0-.241.594,6.76,6.76,0,0,1,1.914,0,7.976,7.976,0,0,1,3.91,1.715,3.29,3.29,0,0,0,.119-.612,8.415,8.415,0,0,0-3.982-1.655" transform="translate(389.594 254.656)" fill="#fff"/>
    <path id="path24" d="M610.871-219.562a.125.125,0,0,0-.129-.131.126.126,0,0,0-.119.141.118.118,0,0,0,.126.127A.124.124,0,0,0,610.871-219.562Zm-.038,0a.091.091,0,0,1-.084.107c-.056,0-.09-.04-.092-.1s.028-.106.084-.107.09.041.093.1" transform="translate(384.996 253.371)" fill="#2fa95c"/>
    <path id="path26" d="M613.516-219.539h.082c.041,0,.043.023.048.047a.135.135,0,0,0,0,.063l.041,0,0-.006c-.009-.006-.012-.012-.012-.026l0-.047c0-.035-.014-.043-.032-.048a.056.056,0,0,0,.039-.061c0-.054-.042-.067-.085-.071l-.116,0v.254h.033Zm0-.116h.082c.018,0,.047.006.047.045s-.026.044-.052.043h-.082l0-.087" transform="translate(382.433 253.365)" fill="#2fa95c"/>
    <path id="path28" d="M615.934-219.387h.1c.085,0,.111-.068.115-.124a.117.117,0,0,0-.107-.131l-.1,0Zm.041-.225h.064c.051,0,.076.037.075.1s-.034.1-.075.1l-.069,0,.006-.194" transform="translate(380.23 253.327)" fill="#2fa95c"/>
    <path id="path30" d="M618.6-219.271l-.187-.011.016-.255.187.013v.031l-.153-.013,0,.081.136.007,0,.031-.138-.009,0,.084.15.01v.03" transform="translate(378.009 253.231)" fill="#2fa95c"/>
    <path id="path32" d="M620.869-219.09l.017-.149c0-.007,0-.04.006-.064h0l-.092.205-.036,0-.045-.219,0,0a.32.32,0,0,1-.005.064l-.014.15-.032,0,.022-.253.051,0,.05.22h0l.1-.206.047.007-.027.254-.032,0" transform="translate(375.987 253.077)" fill="#2fa95c"/>
    <path id="path34" d="M630.385-217.53l-.183-.042.059-.249.176.039,0,.033-.148-.034-.016.074.136.032-.008.03-.136-.033-.019.083.151.036-.008.03" transform="translate(367.427 251.692)" fill="#2fa95c"/>
    <path id="path36" d="M638.1-215.434l.075.028a.073.073,0,0,0,.1-.045.072.072,0,0,0-.05-.094l-.105-.037-.083.241.031.011Zm.042-.112.06.024c.027.011.045.026.037.058a.042.042,0,0,1-.062.025l-.065-.02.031-.087" transform="translate(360.396 249.683)" fill="#2fa95c"/>
    <path id="path38" d="M640.243-214.656l.077.032c.04.014.035.035.026.055a.368.368,0,0,0-.017.062l.041.015v0a.027.027,0,0,1,0-.029l.015-.044c.009-.033,0-.046-.011-.055a.063.063,0,0,0,.052-.044c.022-.052-.011-.082-.052-.1l-.109-.04-.093.236.033.013Zm.043-.107.078.029a.044.044,0,0,1,.029.057c-.013.037-.042.031-.066.023l-.075-.029.033-.08" transform="translate(358.483 248.984)" fill="#2fa95c"/>
    <path id="path40" d="M642.854-213.5a.128.128,0,0,0-.065-.173.121.121,0,0,0-.163.079.117.117,0,0,0,.059.169.122.122,0,0,0,.169-.074Zm-.034-.012a.092.092,0,0,1-.121.061.091.091,0,0,1-.04-.131.088.088,0,0,1,.117-.062.092.092,0,0,1,.044.131" transform="translate(356.294 247.984)" fill="#2fa95c"/>
    <path id="path42" d="M645.24-212.451l.1.045-.059.124-.02-.011.005-.032a.114.114,0,0,1-.093,0,.1.1,0,0,1-.055-.058.136.136,0,0,1,.008-.114.12.12,0,0,1,.164-.069.1.1,0,0,1,.065.119l-.03-.012a.082.082,0,0,0-.049-.084.092.092,0,0,0-.117.062c-.024.046-.031.1.031.132a.1.1,0,0,0,.055.006.087.087,0,0,0,.054-.05l-.074-.033.011-.026" transform="translate(354.05 246.987)" fill="#2fa95c"/>
    <path id="path44" d="M647.381-211.531l.072.036c.04.02.03.044.021.062a.194.194,0,0,0-.02.061l.036.019v-.005a.037.037,0,0,1,0-.03l.02-.044a.045.045,0,0,0,0-.054c.018,0,.038,0,.058-.04s-.009-.079-.045-.1l-.106-.051-.113.227.029.016Zm.05-.1.08.039a.041.041,0,0,1,.022.058c-.017.037-.045.029-.067.016l-.069-.034.035-.078" transform="translate(352.084 246.178)" fill="#2fa95c"/>
    <path id="path46" d="M649.648-210.232l-.166-.089.12-.224.167.087-.015.028-.134-.071-.036.067.123.068-.014.026-.123-.067-.039.075.133.073-.015.026" transform="translate(350.128 245.163)" fill="#2fa95c"/>
    <path id="path48" d="M651.856-209.1a.057.057,0,0,0-.028-.077.051.051,0,0,0-.073.01c-.013.02,0,.031.011.044l.053.052a.068.068,0,0,1,.017.087.083.083,0,0,1-.123.016.109.109,0,0,1-.059-.061.086.086,0,0,1,.011-.067l.029.015c-.022.042,0,.07.032.087s.056.029.079,0,.007-.037-.026-.067l-.039-.036a.067.067,0,0,1-.02-.08.081.081,0,0,1,.118-.024c.078.045.057.094.043.12l-.025-.016" transform="translate(348.181 243.974)" fill="#2fa95c"/>
    <path id="path50" d="M653.838-207.905a.059.059,0,0,0-.028-.078c-.019-.013-.052-.027-.073.008a.027.027,0,0,0,.011.042l.053.054a.062.062,0,0,1,.01.087c-.029.05-.084.035-.124.015a.126.126,0,0,1-.054-.063.077.077,0,0,1,.014-.068l.025.016a.062.062,0,0,0,.029.087c.022.013.062.031.078,0s.009-.035-.02-.065l-.042-.04a.062.062,0,0,1-.013-.077.08.08,0,0,1,.117-.022c.074.046.053.1.039.121l-.026-.015" transform="translate(346.406 242.904)" fill="#2fa95c"/>
    <path id="path52" d="M655.952-206.493a.123.123,0,0,0-.03-.18.123.123,0,0,0-.176.046.123.123,0,0,0,.03.18A.123.123,0,0,0,655.952-206.493Zm-.029-.017a.089.089,0,0,1-.129.038.09.09,0,0,1-.02-.136.092.092,0,0,1,.13-.04.094.094,0,0,1,.019.138" transform="translate(344.532 241.707)" fill="#2fa95c"/>
    <path id="path54" d="M640.864-228.943l.04.128h.134l-.11.079.044.128-.11-.078-.106.08.037-.128-.106-.079h.135l.042-.129" transform="translate(358.019 261.672)" fill="#fff"/>
    <path id="path56" d="M621.068-214.972l.026.081h.089l-.072.048.03.085-.072-.051-.069.049.025-.079-.068-.052h.086l.026-.082" transform="translate(375.724 249.135)" fill="#fff"/>
    <path id="path58" d="M608.031-221.922l.04.117.12,0-.1.073.037.114-.1-.071-.1.071.039-.117-.1-.068H608l.036-.117" transform="translate(387.459 255.372)" fill="#fff"/>
    <path id="path60" d="M613.464-211.175l.032.1h.108l-.088.065.032.1-.087-.064-.085.065.031-.1-.083-.064h.1l.035-.1" transform="translate(382.57 245.729)" fill="#fff"/>
    <path id="path62" d="M610.5-209.733l.044.139.143,0-.116.087.045.137-.119-.084-.117.086.045-.139-.118-.087h.145l.048-.137" transform="translate(385.282 244.434)" fill="#fff"/>
    <path id="path64" d="M608.177-206.2l.022.071.075,0-.06.046.026.069-.063-.043-.061.045.026-.069-.062-.047h.074l.023-.07" transform="translate(387.278 241.263)" fill="#fff"/>
    <path id="path66" d="M616.853-206.43l.031.094h.1l-.082.056.034.1-.081-.06-.082.057.032-.092-.08-.059h.1l.028-.093" transform="translate(379.52 241.471)" fill="#fff"/>
    <path id="path68" d="M616.39-202.922l.029.087h.089l-.073.054.028.089-.076-.053-.073.051.03-.086-.074-.055h.089l.03-.087" transform="translate(379.928 238.323)" fill="#fff"/>
    <path id="path70" d="M619.968-200.35l.038.122h.13l-.1.075.039.121-.1-.076-.105.076.04-.124-.1-.073.127,0,.037-.124" transform="translate(376.758 236.015)" fill="#fff"/>
    <path id="path72" d="M632.269-203.214l.045.136.139,0-.115.083.049.139-.119-.087-.113.086L632.2-203l-.112-.084h.142l.044-.134" transform="translate(365.739 238.585)" fill="#fff"/>
    <path id="path74" d="M631.833-206.345l.014.047h.052l-.038.031.013.049-.041-.029-.04.026.016-.046-.04-.031h.048l.016-.047" transform="translate(366.022 241.394)" fill="#fff"/>
    <path id="path76" d="M629.064-208.334l.028.077h.082l-.065.05.025.074-.069-.048-.062.049.021-.078-.066-.048h.081l.024-.077" transform="translate(368.544 243.179)" fill="#fff"/>
    <path id="path78" d="M633.067-211.583l.03.1h.1l-.083.06.03.1-.081-.06-.086.06.033-.1-.084-.062.1,0,.034-.1" transform="translate(364.98 246.095)" fill="#fff"/>
    <path id="path80" d="M639.9-218.35l.026.085h.094l-.075.055.027.082-.072-.049-.073.051.03-.085-.071-.053.089,0,.027-.087" transform="translate(358.831 252.167)" fill="#fff"/>
    <path id="path82" d="M635.888-208.6l.036.1h.108l-.089.066.033.1-.088-.063-.088.062.039-.1-.091-.065h.108l.031-.1" transform="translate(362.451 243.42)" fill="#fff"/>
    <path id="path84" d="M638.721-200.386l.047.145.153,0-.124.091.051.146-.125-.09-.12.088.046-.144-.121-.089h.15l.045-.143" transform="translate(359.959 236.048)" fill="#fff"/>
    <path id="path86" d="M641.424-195.564l.037.111h.115l-.1.068.038.11-.093-.07-.093.069.034-.111-.095-.066.117,0,.036-.11" transform="translate(357.496 231.721)" fill="#fff"/>
    <path id="path88" d="M644.136-198.928l.028.092.1,0-.078.057.034.1-.081-.059-.082.057.032-.093-.08-.059h.1l.029-.093" transform="translate(355.04 234.739)" fill="#fff"/>
    <path id="path90" d="M647.58-201.045l.039.106.107,0-.087.063.032.1-.087-.064-.092.065.036-.1-.091-.066h.112l.032-.106" transform="translate(351.964 236.639)" fill="#fff"/>
    <path id="path92" d="M647.905-196.316l.029.087h.086l-.069.051.029.086-.076-.051-.073.051.03-.084-.076-.053.093,0,.027-.088" transform="translate(351.651 232.395)" fill="#fff"/>
    <path id="path94" d="M647.993-193.348l.022.07.082,0-.064.044.025.072-.066-.046-.057.047.02-.073-.059-.044.072,0,.026-.07" transform="translate(351.553 229.732)" fill="#fff"/>
    <path id="path96" d="M650.392-199.922l.036.117h.123l-.1.075.039.118-.1-.072-.1.071.038-.117-.1-.073h.127l.039-.118" transform="translate(349.46 235.631)" fill="#fff"/>
    <path id="path98" d="M654.253-200.214l.027.077h.082l-.066.049.023.081-.065-.049-.07.051.025-.083-.069-.047.083,0,.028-.078" transform="translate(345.946 235.893)" fill="#fff"/>
    <path id="path100" d="M655.788-202.444l.017.06h.063l-.051.037.021.062-.053-.04-.051.038.019-.06-.053-.039h.068l.019-.058" transform="translate(344.548 237.894)" fill="#fff"/>
    <path id="path102" d="M653.988-206.488l.025.072h.071l-.06.044.025.074-.063-.044-.06.044.023-.071-.062-.046h.078l.023-.071" transform="translate(346.177 241.522)" fill="#fff"/>
    <path id="path104" d="M657.773-207.066l.041.125h.131l-.107.077.041.128-.107-.078-.106.077.041-.126-.11-.078h.131l.044-.125" transform="translate(342.846 242.042)" fill="#fff"/>
    <path id="path106" d="M633.317-192.5l.024.077h.082l-.065.048.024.076-.066-.046-.064.046.024-.078-.066-.045.083,0,.024-.075" transform="translate(364.728 228.97)" fill="#fff"/>
  </g>
</svg>