<svg xmlns="http://www.w3.org/2000/svg" width="17.712" height="12.391" viewBox="0 0 52.41 36.667">
  <g id="Grupo_2815" data-name="Grupo 2815" transform="translate(18881.816 8807.571)">
    <path id="path128" d="M794.307-404.049a2.44,2.44,0,0,1-2.44,2.44H744.336a2.44,2.44,0,0,1-2.439-2.44v-31.79a2.439,2.439,0,0,1,2.439-2.438h47.531a2.44,2.44,0,0,1,2.44,2.438v31.79" transform="translate(-19623.713 -8369.295)" fill="#e9eae9"/>
    <path id="path130" d="M741.9-327.053a2.44,2.44,0,0,0,2.439,2.44h47.531a2.44,2.44,0,0,0,2.44-2.44v-.4H741.9v.4" transform="translate(-19623.713 -8446.291)" fill="#dc1f28"/>
    <path id="path132" d="M741.9-343.115h52.41v-2.836H741.9v2.836" transform="translate(-19623.713 -8433.438)" fill="#dc1f28"/>
    <path id="path134" d="M741.9-361.62h52.41v-2.831H741.9v2.831" transform="translate(-19623.713 -8420.585)" fill="#dc1f28"/>
    <path id="path136" d="M741.9-380.117h52.41v-2.836H741.9v2.836" transform="translate(-19623.713 -8407.73)" fill="#dc1f28"/>
    <path id="path138" d="M741.9-398.619h52.41v-2.837H741.9v2.837" transform="translate(-19623.713 -8394.876)" fill="#dc1f28"/>
    <path id="path140" d="M741.9-417.12h52.41v-2.836H741.9v2.836" transform="translate(-19623.713 -8382.022)" fill="#dc1f28"/>
    <path id="path142" d="M794.307-435.838a2.44,2.44,0,0,0-2.44-2.438H744.336a2.439,2.439,0,0,0-2.439,2.438v.4h52.41v-.4" transform="translate(-19623.713 -8369.295)" fill="#dc1f28"/>
    <path id="path144" d="M769.28-438.276H744.331a2.438,2.438,0,0,0-2.434,2.438v17.3H769.28v-19.734" transform="translate(-19623.713 -8369.295)" fill="#3067ba"/>
    <path id="path146" d="M745.479-436.823l.268.8h.821l-.663.5.248.816-.673-.5-.665.5.259-.816-.674-.5h.821l.258-.8" transform="translate(-19625.451 -8370.305)" fill="#f0f0f0"/>
    <path id="path148" d="M760.266-436.823l.258.8h.831l-.663.5.258.816-.684-.5-.654.5.258-.816-.674-.5h.822l.247-.8" transform="translate(-19635.732 -8370.305)" fill="#f0f0f0"/>
    <path id="path150" d="M775.706-436.823l.249.8h.821l-.665.5.258.816-.663-.5-.674.5.248-.816-.663-.5h.831l.258-.8" transform="translate(-19646.445 -8370.305)" fill="#f0f0f0"/>
    <path id="path152" d="M791.142-436.823l.259.8h.821l-.673.5.258.816-.665-.5-.673.5.247-.816-.653-.5h.823l.256-.8" transform="translate(-19657.176 -8370.305)" fill="#f0f0f0"/>
    <path id="path154" d="M806.535-436.823l.247.8h.843l-.675.5.249.816-.664-.5-.674.5.258-.816-.674-.5h.832l.258-.8" transform="translate(-19667.863 -8370.305)" fill="#f0f0f0"/>
    <path id="path156" d="M752.539-429.568l.249.811h.831l-.674.5.258.815-.665-.5-.673.5.258-.815-.684-.5h.843l.257-.811" transform="translate(-19630.342 -8375.345)" fill="#f0f0f0"/>
    <path id="path158" d="M767.329-429.568l.259.811h.823l-.665.5.256.815-.674-.5-.674.5.258-.815-.673-.5h.833l.256-.811" transform="translate(-19640.627 -8375.345)" fill="#f0f0f0"/>
    <path id="path160" d="M782.748-429.568l.258.811h.832l-.674.5.258.815-.673-.5-.675.5.268-.815-.683-.5h.831l.258-.811" transform="translate(-19651.336 -8375.345)" fill="#f0f0f0"/>
    <path id="path162" d="M798.186-429.568l.258.811h.832l-.673.5.257.815-.674-.5-.663.5.257-.815-.673-.5h.822l.256-.811" transform="translate(-19662.07 -8375.345)" fill="#f0f0f0"/>
    <path id="path164" d="M813.631-429.568l.247.811h.833l-.663.5.247.815-.664-.5-.674.5.258-.815-.665-.5h.823l.258-.811" transform="translate(-19672.801 -8375.345)" fill="#f0f0f0"/>
    <path id="path166" d="M752.539-416.336l.249.8h.831l-.674.5.258.809-.665-.5-.673.5.258-.809-.684-.5h.843l.257-.8" transform="translate(-19630.342 -8384.538)" fill="#f0f0f0"/>
    <path id="path168" d="M767.329-416.336l.259.8h.823l-.665.5.256.809-.674-.5-.674.5.258-.809-.673-.5h.833l.256-.8" transform="translate(-19640.627 -8384.538)" fill="#f0f0f0"/>
    <path id="path170" d="M782.748-416.336l.258.8h.832l-.674.5.258.809-.673-.5-.675.5.268-.809-.683-.5h.831l.258-.8" transform="translate(-19651.336 -8384.538)" fill="#f0f0f0"/>
    <path id="path172" d="M798.186-416.336l.258.8h.832l-.673.5.257.809-.674-.5-.663.5.257-.809-.673-.5h.822l.256-.8" transform="translate(-19662.07 -8384.538)" fill="#f0f0f0"/>
    <path id="path174" d="M813.631-416.336l.247.8h.833l-.663.5.247.809-.664-.5-.674.5.258-.809-.665-.5h.823l.258-.8" transform="translate(-19672.801 -8384.538)" fill="#f0f0f0"/>
    <path id="path176" d="M752.539-403.126l.249.81h.831l-.674.5.258.8-.665-.5-.673.5.258-.8-.684-.5h.843l.257-.81" transform="translate(-19630.342 -8393.716)" fill="#f0f0f0"/>
    <path id="path178" d="M767.329-403.126l.259.81h.823l-.665.5.256.8-.674-.5-.674.5.258-.8-.673-.5h.833l.256-.81" transform="translate(-19640.627 -8393.716)" fill="#f0f0f0"/>
    <path id="path180" d="M782.748-403.126l.258.81h.832l-.674.5.258.8-.673-.5-.675.5.268-.8-.683-.5h.831l.258-.81" transform="translate(-19651.336 -8393.716)" fill="#f0f0f0"/>
    <path id="path182" d="M798.186-403.126l.258.81h.832l-.673.5.257.8-.674-.5-.663.5.257-.8-.673-.5h.822l.256-.81" transform="translate(-19662.07 -8393.716)" fill="#f0f0f0"/>
    <path id="path184" d="M813.631-403.126l.247.81h.833l-.663.5.247.8-.664-.5-.674.5.258-.8-.665-.5h.823l.258-.81" transform="translate(-19672.801 -8393.716)" fill="#f0f0f0"/>
    <path id="path186" d="M752.539-389.912l.249.8h.831l-.674.505.258.81-.665-.5-.673.5.258-.81-.684-.505h.843l.257-.8" transform="translate(-19630.342 -8402.896)" fill="#f0f0f0"/>
    <path id="path188" d="M767.329-389.912l.259.8h.823l-.665.505.256.81-.674-.5-.674.5.258-.81-.673-.505h.833l.256-.8" transform="translate(-19640.627 -8402.896)" fill="#f0f0f0"/>
    <path id="path190" d="M782.748-389.912l.258.8h.832l-.674.505.258.81-.673-.5-.675.5.268-.81-.683-.505h.831l.258-.8" transform="translate(-19651.336 -8402.896)" fill="#f0f0f0"/>
    <path id="path192" d="M798.186-389.912l.258.8h.832l-.673.505.257.81-.674-.5-.663.5.257-.81-.673-.505h.822l.256-.8" transform="translate(-19662.07 -8402.896)" fill="#f0f0f0"/>
    <path id="path194" d="M813.631-389.912l.247.8h.833l-.663.505.247.81-.664-.5-.674.5.258-.81-.665-.505h.823l.258-.8" transform="translate(-19672.801 -8402.896)" fill="#f0f0f0"/>
    <path id="path196" d="M821.976-436.823l.258.8h.823l-.665.5.259.816-.674-.5-.674.5.258-.816-.663-.5h.821l.258-.8" transform="translate(-19678.598 -8370.305)" fill="#f0f0f0"/>
    <path id="path198" d="M745.479-423.612l.268.816h.821l-.663.494.248.81-.673-.5-.665.5.259-.81-.674-.494h.821l.258-.816" transform="translate(-19625.451 -8379.482)" fill="#f0f0f0"/>
    <path id="path200" d="M760.266-423.612l.258.816h.831l-.663.494.258.81-.684-.5-.654.5.258-.81-.674-.494h.822l.247-.816" transform="translate(-19635.732 -8379.482)" fill="#f0f0f0"/>
    <path id="path202" d="M775.706-423.612l.249.816h.821l-.665.494.258.81-.663-.5-.674.5.248-.81-.663-.494h.831l.258-.816" transform="translate(-19646.445 -8379.482)" fill="#f0f0f0"/>
    <path id="path204" d="M791.142-423.612l.259.816h.821l-.673.494.258.81-.665-.5-.673.5.247-.81-.653-.494h.823l.256-.816" transform="translate(-19657.176 -8379.482)" fill="#f0f0f0"/>
    <path id="path206" d="M806.535-423.612l.247.816h.843l-.675.494.249.81-.664-.5-.674.5.258-.81-.674-.494h.832l.258-.816" transform="translate(-19667.863 -8379.482)" fill="#f0f0f0"/>
    <path id="path208" d="M821.976-423.612l.258.816h.823l-.665.494.259.81-.674-.5-.674.5.258-.81-.663-.494h.821l.258-.816" transform="translate(-19678.598 -8379.482)" fill="#f0f0f0"/>
    <path id="path210" d="M745.479-410.4l.268.806h.821l-.663.5.248.808-.673-.5-.665.5.259-.808-.674-.5h.821l.258-.806" transform="translate(-19625.451 -8388.661)" fill="#f0f0f0"/>
    <path id="path212" d="M760.266-410.4l.258.806h.831l-.663.5.258.808-.684-.5-.654.5.258-.808-.674-.5h.822l.247-.806" transform="translate(-19635.732 -8388.661)" fill="#f0f0f0"/>
    <path id="path214" d="M775.706-410.4l.249.806h.821l-.665.5.258.808-.663-.5-.674.5.248-.808-.663-.5h.831l.258-.806" transform="translate(-19646.445 -8388.661)" fill="#f0f0f0"/>
    <path id="path216" d="M791.142-410.4l.259.806h.821l-.673.5.258.808-.665-.5-.673.5.247-.808-.653-.5h.823l.256-.806" transform="translate(-19657.176 -8388.661)" fill="#f0f0f0"/>
    <path id="path218" d="M806.535-410.4l.247.806h.843l-.675.5.249.808-.664-.5-.674.5.258-.808-.674-.5h.832l.258-.806" transform="translate(-19667.863 -8388.661)" fill="#f0f0f0"/>
    <path id="path220" d="M821.976-410.4l.258.806h.823l-.665.5.259.808-.674-.5-.674.5.258-.808-.663-.5h.821l.258-.806" transform="translate(-19678.598 -8388.661)" fill="#f0f0f0"/>
    <path id="path222" d="M745.479-397.17l.268.811h.821l-.663.493.248.809-.673-.5-.665.5.259-.809-.674-.493h.821l.258-.811" transform="translate(-19625.451 -8397.854)" fill="#f0f0f0"/>
    <path id="path224" d="M760.266-397.17l.258.811h.831l-.663.493.258.809-.684-.5-.654.5.258-.809-.674-.493h.822l.247-.811" transform="translate(-19635.732 -8397.854)" fill="#f0f0f0"/>
    <path id="path226" d="M775.706-397.17l.249.811h.821l-.665.493.258.809-.663-.5-.674.5.248-.809-.663-.493h.831l.258-.811" transform="translate(-19646.445 -8397.854)" fill="#f0f0f0"/>
    <path id="path228" d="M791.142-397.17l.259.811h.821l-.673.493.258.809-.665-.5-.673.5.247-.809-.653-.493h.823l.256-.811" transform="translate(-19657.176 -8397.854)" fill="#f0f0f0"/>
    <path id="path230" d="M806.535-397.17l.247.811h.843l-.675.493.249.809-.664-.5-.674.5.258-.809-.674-.493h.832l.258-.811" transform="translate(-19667.863 -8397.854)" fill="#f0f0f0"/>
    <path id="path232" d="M821.976-397.17l.258.811h.823l-.665.493.259.809-.674-.5-.674.5.258-.809-.663-.493h.821l.258-.811" transform="translate(-19678.598 -8397.854)" fill="#f0f0f0"/>
    <path id="path234" d="M745.479-383.987l.268.819h.821l-.663.495.248.81-.673-.5-.665.5.259-.81-.674-.495h.821l.258-.819" transform="translate(-19625.451 -8407.013)" fill="#f0f0f0"/>
    <path id="path236" d="M760.266-383.987l.258.819h.831l-.663.495.258.81-.684-.5-.654.5.258-.81-.674-.495h.822l.247-.819" transform="translate(-19635.732 -8407.013)" fill="#f0f0f0"/>
    <path id="path238" d="M775.706-383.987l.249.819h.821l-.665.495.258.81-.663-.5-.674.5.248-.81-.663-.495h.831l.258-.819" transform="translate(-19646.445 -8407.013)" fill="#f0f0f0"/>
    <path id="path240" d="M791.142-383.987l.259.819h.821l-.673.495.258.81-.665-.5-.673.5.247-.81-.653-.495h.823l.256-.819" transform="translate(-19657.176 -8407.013)" fill="#f0f0f0"/>
    <path id="path242" d="M806.535-383.987l.247.819h.843l-.675.495.249.81-.664-.5-.674.5.258-.81-.674-.495h.832l.258-.819" transform="translate(-19667.863 -8407.013)" fill="#f0f0f0"/>
    <path id="path244" d="M821.976-383.987l.258.819h.823l-.665.495.259.81-.674-.5-.674.5.258-.81-.663-.495h.821l.258-.819" transform="translate(-19678.598 -8407.013)" fill="#f0f0f0"/>
  </g>
</svg>