<?xml version="1.0" encoding="utf-8"?>

<svg xmlns="http://www.w3.org/2000/svg" id="Camada_3" data-name="Camada 3" version="1.1" viewBox="0 0 1238.7 201.1">
  <defs>
    <style>
      .cls-1 {
        fill: #0b8fff;
        stroke-width: 0px;
      }
    </style>
  </defs>
  <path class="cls-1" d="M686.8,49.9c-5.8,0-10.5,4.3-10.6,9.7,0,5.4,4.6,9.8,10.4,9.9,5.8,0,10.5-4.3,10.6-9.7,0-5.4-4.6-9.8-10.4-9.9Z"/>
  <path class="cls-1" d="M745.8,153.8v-13.3c0-.4-.3-.6-.7-.6h0c-8.4.8-13.8-4.1-13.8-12.5V50.2c0-.3-.4-.5-.7-.5l-16.3,2.6c-.5,0-.5.2-.5.5v71.3c0,2.3,0,4.6.3,6.9,1.3,13.9,9.3,22.7,23.8,23.3,2.4.1,4.8.1,7.3.1s.7-.2.7-.6Z"/>
  <path class="cls-1" d="M890.8,49.8c-5.8-.1-10.6,4.1-10.7,9.6,0,5.4,4.5,9.9,10.3,10s10.6-4.1,10.7-9.6c0-5.4-4.5-9.9-10.3-10Z"/>
  <path class="cls-1" d="M1143.7,49.9c-5.8-.2-10.7,4-10.9,9.4-.2,5.4,4.3,10,10.1,10.2,5.8.2,10.7-4,10.9-9.4.2-5.4-4.3-10-10.1-10.2Z"/>
  <path class="cls-1" d="M959.2,136.2h0c-.2-.2-.5-.2-.8,0-8.7,6.7-22.4,4.4-22.6-8.9v-31.4c0-.4.2-.6.6-.6h26.5c.4,0,.6-.2.6-.6v-13.5c0-.5-.2-.7-.7-.7h-26.5c0-.1,0-.1,0-.1-.2,0-.4-.2-.4-.4v-19.4c0-.5-.2-.5-.6-.5l-16.3,2.5c-.3.1-.5.3-.5.6v55.3c0,7.4.2,11.5.2,12.3,1.4,10.3,6.4,19.2,16.6,22.5,11.6,3.7,22.1,1.7,31.5-6.1.2-.3.3-.6,0-1l-7.5-10Z"/>
  <path class="cls-1" d="M560.7,79.2h0c-12.2-.6-22.8,3.2-31.8,11.4,0,.2-.2.4,0,.6l8.2,9.3c.3.3.7.3,1.1,0,6.5-5.8,16.1-8.3,24.1-6.6,8.3,1.7,10.8,9.6,10.5,17.3,0,.2-.2.4-.4.4h-17.5c-11.7,0-26.6,4.8-28.4,18.7-1.9,15.1,7.4,24,22.1,24.7,9.5.5,18.2-3.5,25.1-10,0,.1.2.1.2.1.4-.4.7-.4.9.2l2.4,7.9c0,.2.3.4.5.4h10.8c.2,0,.4-.2.4-.4v-42.7c0-18.1-9.7-30.4-28.2-31.3ZM572.4,132.5c-6.3,6.7-15.4,11-24.2,8.5-4.9-1.4-7.8-5.8-6.2-10.8,1.4-4.4,7.5-6.8,11.6-6.8h18.8c.5,0,.5.2.5.5v7.5h0c0,.4-.2.8-.5,1.1Z"/>
  <path class="cls-1" d="M634.7,108.8h0c-3.4-.5-6.6-1.5-9.9-2.9-3.2-1.4-4.3-4.7-3.4-7.9.8-2.5,3.6-4.2,6.1-4.6,9-1.6,17.3.6,24.8,6.5.2.3.5.2.7,0l8.6-9.3c.2-.2.2-.5,0-.5-5.2-5-11.4-8.4-18.5-10-13.9-3.2-36,0-37.9,17.8-2.2,20.2,14.9,23.5,30.3,26.4,5.1,1,12.6,4,10.9,10.7-1.6,6.5-12.1,5.9-17,5.4-7.4-.7-13.7-3.3-19-7.7-.2-.2-.5,0-.7.1l-7.7,9.9c-.3.3-.3.5,0,.8,11.7,10.6,28.5,13.4,43.5,10,0-.1.2-.1.2-.1,8.7-1.9,16-8.5,17.1-17.5,2.3-18.6-13.3-24.6-28.1-27.1Z"/>
  <path class="cls-1" d="M1026.7,132.8c-.3-.3-.6-.3-.9,0-9.2,9.8-25,9.8-32.4-1.9-3.9-6.3-4.6-16.2-2.2-23.1,3.2-9.2,9.7-13.7,19.4-13.7s10.7,2.6,14.3,6.8c.3.3.7.2.9,0l9.2-9.8c.2-.2.2-.5,0-.7-9.4-11.2-25.9-13.9-38.8-9.1-19.4,7.2-26.4,26.5-22.6,45.8h0v.2c3.7,18.9,19.7,29,38.4,27.7,9-.7,16.8-4.5,23.6-11.4.3-.3.3-.7,0-1l-9-9.8Z"/>
  <path class="cls-1" d="M1110.4,92.8h0c-10.2-13.2-28.7-17.3-44.1-11.1-18,7.3-25.2,26.2-21.3,44.9,3.7,17.8,18.6,28.7,37.1,28.2,23.3-.6,37.9-19.3,35.9-42-.7-7.6-3.2-14.3-7.6-20ZM1099.8,125.5c-2.9,10.6-12.5,15.8-23,13.9-8.9-1.6-14-8.7-15.2-17.5-1.5-10.9,1.3-22.5,12.3-26.7,6.8-2.6,15.5-1.3,20.7,4.1,6.5,6.7,7.4,17.5,5.1,26.2h0Z"/>
  <path class="cls-1" d="M1227.8,83.9h0c-3.9-3-8.8-4.6-14.7-4.9-10-.5-18.9,3.6-25.9,10.9-.2,0-.4-.1-.4-.3l-2.7-8.8c0-.3-.3-.5-.7-.5h-11.5c-.2,0-.4.2-.4.4v71.9c0,.5.2.7.7.7h16.1c.5,0,.7-.3.7-.7v-46.7c0-2.1,2.2-4,3.6-5.4,4.8-4.9,10.5-6.9,17.1-6.2,9.4,1.1,11.9,9.9,11.9,17.9v40.8c0,.2.2.4.4.4h16.5c.3,0,.3-.1.3-.3v-44.2c0-9.3-3.4-19.2-10.9-25Z"/>
  <path class="cls-1" d="M517.4,79.3h0c-11.1-.4-20.3,3.3-27.8,11-.4.4-.7.4-.8-.1l-2.9-9.4c-.1-.2-.2-.2-.4-.2h-11.5c-.4,0-.6.2-.6.6v71.7c0,.4.2.6.6.6h16c.5,0,.7-.2.7-.7v-46.4c0-.8.2-1.5.8-2.1,6.5-7.2,15-10.5,25.5-10.1.6,0,.8-.3.8-.8v-13.6c0-.3-.2-.5-.5-.5Z"/>
  <rect class="cls-1" x="677.8" y="80.5" width="17.4" height="73" rx=".4" ry=".4"/>
  <rect class="cls-1" x="881.6" y="80.5" width="17.5" height="73" rx=".4" ry=".4"/>
  <rect class="cls-1" x="1134.5" y="80.5" width="17.5" height="73" rx=".4" ry=".4"/>
  <path class="cls-1" d="M400.2,77h0c-3.4,1.2-6.6,2.9-9.6,5.1-.5.4-.7.2-.7-.3v-28.2l-16.5,7.3v8.2h-.1v41.8c0,9.4.7,15.8,4.8,23.4,12.7,23.4,43.3,28.9,63.4,11,7.3-6.5,12.3-16.4,13.1-26.4,2.5-30-26.3-51.9-54.5-41.9ZM414.3,139.5c-13.4,0-24.3-10.9-24.3-24.3s10.9-24.3,24.3-24.3,24.3,10.9,24.3,24.3-10.9,24.3-24.3,24.3Z"/>
  <path class="cls-1" d="M809.4,77h0c-3.4,1.2-6.6,2.9-9.6,5.1-.5.4-.7.2-.7-.3v-28.2l-16.5,7.3v8.2h0v41.8c0,9.4.7,15.8,4.8,23.4,12.7,23.4,43.3,28.9,63.4,11,7.3-6.5,12.3-16.4,13.1-26.4,2.5-30-26.3-51.9-54.5-41.9ZM823.5,139.5c-13.4,0-24.3-10.9-24.3-24.3s10.9-24.3,24.3-24.3,24.3,10.9,24.3,24.3-10.9,24.3-24.3,24.3Z"/>
  <path class="cls-1" d="M201.1,36h0c-5.5,1.7-10.6,3.8-15.2,6.3V0l-33.1,12.8v58.9c-3.4,5.5-6.1,11.4-8.3,17.3-1.9,5.2-3,10.6-4.1,15.9-2.2,10.6-6,20.9-10.5,31-2.5,5.6-6.4,10.4-9.9,15.4-1.3,2-2.8,3.7-4.6,5.1-9.3,7.5-20.4,11.9-32.3,11.7-13.8-.2-25.4-5.1-34.8-14.5-22.5-22.7-18.2-60.5,8.6-77.9,22.3-14.5,52-7.8,67.3,14,0,.2.3.2.3.2.3,0,.6,0,.6-.3,3.5-11.7,8.8-22.4,16-32.2.3-.3.3-.7,0-.9-5.8-5.3-12-9.8-18.8-13.5-5.3-2.9-11.5-5.3-18.6-7-17.9-4.4-34.8-3.3-50.9,3.3h-.2c-.3.2-.6.3-.9.5-5.8,2.4-11.1,5.4-15.9,8.7-.4.3-.7.5-1.1.8-.5.4-1.1.8-1.6,1.2V0L0,12.8v96.7c0,8.6.3,15.1.9,19.6,8.9,62.2,80,92.9,130.8,55.9,3.8-2.7,7.3-6,10.7-9.2,3.3-3.2,6.4-7.1,9.3-11.8,3.8-6.4,7.3-12.9,9.9-19.9,3.8-10.4,7.5-20.7,10.9-31.1,1.5-4.3,3-8.6,4.8-13,2.2-5.5,4.2-9.6,6.1-12.2,4.9-7,11.2-12.1,18.7-15.4,20.4-8.9,43.1-4,57.9,12.7,20.5,23.1,14.3,59.2-11.3,75.2-15.8,9.9-35.5,10.1-51.5.5-5.7-3.4-10.7-8.1-15-14,0-.2-.2-.2-.2-.2-.3,0-.6.1-.6.3-3.2,11.1-8.3,21.3-15.2,30.9-.3.3-.3.5,0,.8,14.7,13.2,31.4,20.5,50.3,21.9,44,3.4,82.1-28.2,88.5-71.6,1-6.8,1.2-13.5.5-20.1-5.2-51.6-55-86.2-104.4-72.9Z"/>
</svg>